<svg xmlns="http://www.w3.org/2000/svg" id="Layer_2" data-name="Layer 2" viewBox="0 0 244.62 287.85"><defs><style> .cls-1 { fill: #fff; stroke-width: 0px; } </style></defs><g id="Layer_1-2" data-name="Layer 1"><g><path class="cls-1" d="M128.78,0c1.19,0,2.36.31,3.39.91l109.05,62.96c3.06,1.77,3.39,4.7,3.39,5.88s-.33,4.11-3.39,5.88l-109.05,62.96c-1.03.59-2.2.91-3.39.91s-2.36-.31-3.39-.91L16.33,75.63c-3.06-1.77-3.39-4.7-3.39-5.88s.33-4.11,3.39-5.88L125.38.91c1.03-.59,2.2-.91,3.39-.91Z"></path><path class="cls-1" d="M6.81,85.35c1.17,0,2.31.31,3.37.93l109.05,62.96c2.09,1.21,3.39,3.46,3.39,5.88v125.92c0,4.2-3.53,6.81-6.81,6.81-1.17,0-2.31-.31-3.37-.93L3.39,223.96c-2.09-1.21-3.39-3.46-3.39-5.88v-125.92c0-2.4,1.12-3.97,2.05-4.87,1.28-1.23,3.02-1.94,4.76-1.94Z"></path><path class="cls-1" d="M162.21,238.62h0c0-1.11.28-2.2.81-3.18l42.15-76.96c.57-1.04-.59-2.17-1.61-1.57l-29.96,17.3c-4.41,2.55-9.92-.64-9.92-5.73v-1.31c0-2.36,1.26-4.55,3.31-5.73l56.44-32.58c4.41-2.55,9.92.64,9.92,5.73v.12c0,1.11-.28,2.2-.81,3.18l-41.98,76.58c-.58,1.06.6,2.2,1.64,1.6l31.98-18.46c4.41-2.55,9.92.64,9.92,5.73v1.44c0,2.36-1.26,4.55-3.31,5.73l-58.65,33.86c-4.41,2.55-9.92-.64-9.92-5.73Z"></path></g></g></svg>